<svg viewBox="0 0 200 300" xmlns="http://www.w3.org/2000/svg">
  <!-- Определения для градиентов и фильтров -->
  <defs>
    <!-- Градиент для платья -->
    <linearGradient id="dressGradient" x1="0%" y1="0%" x2="100%" y2="100%">
      <stop offset="0%" stop-color="#9C27B0" />
      <stop offset="100%" stop-color="#673AB7" />
    </linearGradient>
    
    <!-- Градиент для золотых украшений -->
    <linearGradient id="goldGradient" x1="0%" y1="0%" x2="100%" y2="100%">
      <stop offset="0%" stop-color="#FFD700" />
      <stop offset="50%" stop-color="#FFC107" />
      <stop offset="100%" stop-color="#FF8F00" />
    </linearGradient>
    
    <!-- Градиент для волос -->
    <linearGradient id="hairGradient" x1="0%" y1="0%" x2="100%" y2="100%">
      <stop offset="0%" stop-color="#3E2723" />
      <stop offset="100%" stop-color="#1A1A1A" />
    </linearGradient>
    
    <!-- Фильтр для создания тени -->
    <filter id="shadow" x="-20%" y="-20%" width="140%" height="140%">
      <feGaussianBlur in="SourceAlpha" stdDeviation="3" />
      <feOffset dx="2" dy="4" />
      <feComponentTransfer>
        <feFuncA type="linear" slope="0.3" />
      </feComponentTransfer>
      <feMerge>
        <feMergeNode />
        <feMergeNode in="SourceGraphic" />
      </feMerge>
    </filter>
  </defs>
  
  <!-- Тело персонажа -->
  <g filter="url(#shadow)">
    <!-- Голова -->
    <circle cx="100" cy="70" r="35" fill="#C68642" />
    
    <!-- Кудрявые волосы с более выраженными локонами -->
    <g fill="url(#hairGradient)">
      <!-- Основа волос -->
      <path d="M65 70 Q60 40 80 30 Q100 15 120 30 Q140 40 135 70 Q135 90 135 100 Q120 110 80 110 Q65 100 65 70Z" />
      
      <!-- Дополнительные кудри - верхний слой -->
      <circle cx="65" cy="50" r="12" />
      <circle cx="60" cy="65" r="10" />
      <circle cx="58" cy="80" r="11" />
      <circle cx="62" cy="95" r="10" />
      <circle cx="75" cy="105" r="9" />
      <circle cx="90" cy="110" r="8" />
      <circle cx="110" cy="110" r="8" />
      <circle cx="125" cy="105" r="9" />
      <circle cx="135" cy="50" r="12" />
      <circle cx="140" cy="65" r="10" />
      <circle cx="142" cy="80" r="11" />
      <circle cx="138" cy="95" r="10" />
      
      <!-- Кудри на лбу -->
      <circle cx="85" cy="35" r="8" />
      <circle cx="100" cy="30" r="10" />
      <circle cx="115" cy="35" r="8" />
      
      <!-- Кудри по бокам -->
      <circle cx="55" cy="95" r="8" />
      <circle cx="145" cy="95" r="8" />
      
      <!-- Объемные кудри на верхушке -->
      <circle cx="90" cy="25" r="9" />
      <circle cx="110" cy="25" r="9" />
      <circle cx="100" cy="20" r="10" />
    </g>
    
    <!-- Лицо -->
    <ellipse cx="85" cy="65" rx="3" ry="5" fill="#3E2723" />
    <ellipse cx="115" cy="65" rx="3" ry="5" fill="#3E2723" />
    
    <!-- Улыбка -->
    <path d="M90 80 Q100 90 110 80" fill="none" stroke="#3E2723" stroke-width="2" stroke-linecap="round" />
    
    <!-- Золотые украшения: серьги и ожерелье -->
    <circle cx="68" cy="70" r="4" fill="url(#goldGradient)" />
    <circle cx="132" cy="70" r="4" fill="url(#goldGradient)" />
    <path d="M85 110 Q100 120 115 110" fill="none" stroke="url(#goldGradient)" stroke-width="4" stroke-linecap="round" />
    
    <!-- Платье -->
    <path d="M70 100 L70 240 Q85 250 100 240 Q115 250 130 240 L130 100 Z" fill="url(#dressGradient)" />
    
    <!-- Узоры на платье -->
    <path d="M85 120 L85 180 L115 180 L115 120" fill="none" stroke="url(#goldGradient)" stroke-width="2" />
    <circle cx="100" cy="135" r="8" fill="url(#goldGradient)" />
    <circle cx="100" cy="165" r="8" fill="url(#goldGradient)" />
    <path d="M85 200 L115 200" fill="none" stroke="url(#goldGradient)" stroke-width="2" />
    <path d="M85 220 L115 220" fill="none" stroke="url(#goldGradient)" stroke-width="2" />
    
    <!-- Руки -->
    <path d="M70 115 Q50 140 45 165 Q42 180 50 182 Q60 185 62 175 Q65 160 70 140" fill="#C68642" />
    <path d="M130 115 Q150 140 155 165 Q158 180 150 182 Q140 185 138 175 Q135 160 130 140" fill="#C68642" />
    
    <!-- Золотые браслеты -->
    <path d="M48 170 Q55 175 60 170" fill="none" stroke="url(#goldGradient)" stroke-width="2" stroke-linecap="round" />
    <path d="M152 170 Q145 175 140 170" fill="none" stroke="url(#goldGradient)" stroke-width="2" stroke-linecap="round" />
    <circle cx="49" cy="170" r="3" fill="url(#goldGradient)" />
    <circle cx="151" cy="170" r="3" fill="url(#goldGradient)" />
    
    <!-- Ноги и обувь -->
    <path d="M85 240 L80 260" fill="none" stroke="#C68642" stroke-width="8" stroke-linecap="round" />
    <path d="M115 240 L120 260" fill="none" stroke="#C68642" stroke-width="8" stroke-linecap="round" />
    <ellipse cx="75" cy="262" rx="10" ry="4" fill="#6D4C41" />
    <ellipse cx="125" cy="262" rx="10" ry="4" fill="#6D4C41" />
    
    <!-- Золотые украшения на туфлях -->
    <circle cx="75" cy="260" r="3" fill="url(#goldGradient)" />
    <circle cx="125" cy="260" r="3" fill="url(#goldGradient)" />
  </g>
</svg>