<svg viewBox="0 0 200 300" xmlns="http://www.w3.org/2000/svg">
  <!-- Определения для градиентов и фильтров -->
  <defs>
    <!-- Градиент для одежды -->
    <linearGradient id="clothGradient" x1="0%" y1="0%" x2="100%" y2="100%">
      <stop offset="0%" stop-color="#FF5E3A" />
      <stop offset="100%" stop-color="#FF2A68" />
    </linearGradient>
    
    <!-- Градиент для гитары -->
    <linearGradient id="guitarGradient" x1="0%" y1="0%" x2="100%" y2="100%">
      <stop offset="0%" stop-color="#8B4513" />
      <stop offset="100%" stop-color="#5D2906" />
    </linearGradient>
    
    <!-- Градиент для штанов -->
    <linearGradient id="pantsGradient" x1="0%" y1="0%" x2="100%" y2="0%">
      <stop offset="0%" stop-color="#3023AE" />
      <stop offset="100%" stop-color="#53A0FD" />
    </linearGradient>
    
    <!-- Градиент для бороды -->
    <linearGradient id="beardGradient" x1="0%" y1="0%" x2="100%" y2="100%">
      <stop offset="0%" stop-color="#302208" />
      <stop offset="100%" stop-color="#483215" />
    </linearGradient>
    
    <!-- Фильтр для создания тени -->
    <filter id="shadow" x="-20%" y="-20%" width="140%" height="140%">
      <feGaussianBlur in="SourceAlpha" stdDeviation="3" />
      <feOffset dx="2" dy="4" />
      <feComponentTransfer>
        <feFuncA type="linear" slope="0.3" />
      </feComponentTransfer>
      <feMerge>
        <feMergeNode />
        <feMergeNode in="SourceGraphic" />
      </feMerge>
    </filter>
  </defs>
  
  <!-- Тело персонажа -->
  <g filter="url(#shadow)">
    <!-- Голова -->
    <circle cx="100" cy="70" r="35" fill="#F5D0A9" />
    
    <!-- Волосы -->
    <path d="M70 55 Q100 20 130 55 Q130 35 115 30 Q100 15 85 30 Q70 35 70 55Z" fill="#302208" />
    
    <!-- Лицо -->
    <ellipse cx="85" cy="60" rx="3" ry="5" fill="#302208" />
    <ellipse cx="115" cy="60" rx="3" ry="5" fill="#302208" />
    <path d="M92 75 Q100 85 108 75" fill="none" stroke="#302208" stroke-width="2" stroke-linecap="round" />
    
    <!-- БОРОДА -->
    <path d="M75 73 Q100 95 125 73 V90 Q100 115 75 90 Z" fill="url(#beardGradient)" />
    <path d="M85 73 Q80 80 82 87" fill="none" stroke="#483215" stroke-width="1.5" />
    <path d="M115 73 Q120 80 118 87" fill="none" stroke="#483215" stroke-width="1.5" />
    <path d="M100 85 Q100 95 100 102" fill="none" stroke="#483215" stroke-width="1.5" />
    <path d="M90 80 Q88 90 90 96" fill="none" stroke="#483215" stroke-width="1.5" />
    <path d="M110 80 Q112 90 110 96" fill="none" stroke="#483215" stroke-width="1.5" />
    
    <!-- Усы -->
    <path d="M92 75 Q100 82 108 75" fill="none" stroke="#302208" stroke-width="2.5" stroke-linecap="round" />
    <path d="M90 75 Q85 73 80 74" fill="none" stroke="#302208" stroke-width="1.5" stroke-linecap="round" />
    <path d="M110 75 Q115 73 120 74" fill="none" stroke="#302208" stroke-width="1.5" stroke-linecap="round" />
    
    <!-- Рубашка -->
    <path d="M65 105 L65 170 L85 170 L85 190 L115 190 L115 170 L135 170 L135 105 Z" fill="url(#clothGradient)" />
    <path d="M65 105 L55 140 L65 150 L65 170" fill="none" stroke="#FFD700" stroke-width="3" />
    <path d="M135 105 L145 140 L135 150 L135 170" fill="none" stroke="#FFD700" stroke-width="3" />
    
    <!-- Орнаменты на рубашке -->
    <circle cx="100" cy="125" r="10" fill="#FFD700" />
    <circle cx="100" cy="125" r="6" fill="url(#clothGradient)" />
    <circle cx="80" cy="140" r="5" fill="#FFD700" />
    <circle cx="120" cy="140" r="5" fill="#FFD700" />
    
    <!-- Штаны -->
    <path d="M85 170 L75 240 L65 260 L85 260 L100 190 L115 260 L135 260 L125 240 L115 170 Z" fill="url(#pantsGradient)" />
    
    <!-- Ремень -->
    <rect x="85" y="170" width="30" height="5" fill="#5D4037" />
    <circle cx="100" cy="172.5" r="2" fill="gold" />
    
    <!-- Гитара -->
    <ellipse cx="155" cy="180" rx="20" ry="30" fill="url(#guitarGradient)" />
    <rect x="95" cy="140" width="60" height="8" transform="rotate(35 95 140)" fill="url(#guitarGradient)" />
    <rect x="148" cy="173" width="14" height="14" fill="#222" />
    <line x1="148" y1="180" x2="162" y2="180" stroke="#F5F5F5" stroke-width="1" />
    <line x1="155" y1="173" x2="155" y2="187" stroke="#F5F5F5" stroke-width="1" />
    
    <!-- Струны гитары -->
    <line x1="155" y1="160" x2="155" y2="200" stroke="#F5F5F5" stroke-width="0.5" />
    <line x1="150" y1="160" x2="150" y2="200" stroke="#F5F5F5" stroke-width="0.5" />
    <line x1="160" y1="160" x2="160" y2="200" stroke="#F5F5F5" stroke-width="0.5" />
    
    <!-- Руки -->
    <path d="M65 120 Q45 130 40 150 Q38 160 45 165 Q55 170 58 160 Q60 150 65 140" fill="#F5D0A9" />
    <path d="M135 120 Q150 140 155 155 Q160 165 165 155 Q168 145 158 140 Q148 135 135 130" fill="#F5D0A9" />
    
    <!-- Обувь -->
    <ellipse cx="75" cy="260" rx="15" ry="5" fill="#5D4037" />
    <ellipse cx="125" cy="260" rx="15" ry="5" fill="#5D4037" />
  </g>
  
  <!-- Ноты над головой -->
  <g fill="#FFD700" transform="translate(130, 30) scale(0.5)">
    <path d="M0,10 Q10,0 20,10 L18,30 L2,30 Z" />
    <rect x="8" y="30" width="4" height="25" />
  </g>
  
  <g fill="#FFD700" transform="translate(150, 40) scale(0.4)">
    <path d="M0,10 Q10,0 20,10 L18,30 L2,30 Z" />
    <rect x="8" y="30" width="4" height="20" />
  </g>
  
  <g fill="#FFD700" transform="translate(140, 20) scale(0.3)">
    <ellipse cx="10" cy="10" rx="10" ry="8" />
    <rect x="18" y="6" width="4" height="25" transform="rotate(15 18 6)" />
  </g>
</svg>